<svg width="800" height="16" viewBox="0 0 800 16" fill="none" xmlns="http://www.w3.org/2000/svg">
<path d="M932.5 5.75392C928.7 5.75392 928.7 1.69238 925 1.69238C921.2 1.69238 921.2 5.75392 917.5 5.75392C913.7 5.75392 913.7 1.69238 910 1.69238C906.2 1.69238 906.2 5.75392 902.5 5.75392C898.7 5.75392 898.7 1.69238 895 1.69238C891.2 1.69238 891.2 5.75392 887.5 5.75392C883.7 5.75392 883.7 1.69238 880 1.69238C876.2 1.69238 876.2 5.75392 872.5 5.75392C868.7 5.75392 868.7 1.69238 865 1.69238C861.2 1.69238 861.2 5.75392 857.5 5.75392C853.7 5.75392 853.7 1.69238 850 1.69238C846.2 1.69238 846.2 5.75392 842.5 5.75392C838.7 5.75392 838.7 1.69238 835 1.69238C831.2 1.69238 831.2 5.75392 827.5 5.75392C823.7 5.75392 823.7 1.69238 820 1.69238C816.2 1.69238 816.2 5.75392 812.5 5.75392C808.7 5.75392 808.7 1.69238 805 1.69238C801.2 1.69238 801.2 5.75392 797.5 5.75392C793.7 5.75392 793.7 1.69238 790 1.69238C786.2 1.69238 786.2 5.75392 782.5 5.75392C778.7 5.75392 778.7 1.69238 775 1.69238C771.2 1.69238 771.2 5.75392 767.5 5.75392C763.7 5.75392 763.7 1.69238 760 1.69238C756.2 1.69238 756.2 5.75392 752.5 5.75392C748.7 5.75392 748.7 1.69238 745 1.69238C741.2 1.69238 741.2 5.75392 737.5 5.75392C733.7 5.75392 733.7 1.69238 730 1.69238C726.2 1.69238 726.2 5.75392 722.5 5.75392C718.7 5.75392 718.7 1.69238 715 1.69238C711.2 1.69238 711.2 5.75392 707.5 5.75392C703.7 5.75392 703.7 1.69238 700 1.69238C696.2 1.69238 696.2 5.75392 692.5 5.75392C688.7 5.75392 688.7 1.69238 685 1.69238C681.2 1.69238 681.2 5.75392 677.5 5.75392C673.7 5.75392 673.7 1.69238 670 1.69238C666.2 1.69238 666.2 5.75392 662.5 5.75392C658.7 5.75392 658.7 1.69238 655 1.69238C651.2 1.69238 651.2 5.75392 647.5 5.75392C643.7 5.75392 643.7 1.69238 640 1.69238C636.2 1.69238 636.2 5.75392 632.5 5.75392C628.7 5.75392 628.7 1.69238 625 1.69238C621.2 1.69238 621.2 5.75392 617.5 5.75392C613.7 5.75392 613.7 1.69238 610 1.69238C606.2 1.69238 606.2 5.75392 602.5 5.75392C598.7 5.75392 598.7 1.69238 595 1.69238C591.2 1.69238 591.2 5.75392 587.5 5.75392C583.7 5.75392 583.7 1.69238 580 1.69238C576.2 1.69238 576.2 5.75392 572.5 5.75392C568.7 5.75392 568.7 1.69238 565 1.69238C561.2 1.69238 561.2 5.75392 557.5 5.75392C553.7 5.75392 553.7 1.69238 550 1.69238C546.2 1.69238 546.2 5.75392 542.5 5.75392C538.7 5.75392 538.7 1.69238 535 1.69238C531.2 1.69238 531.2 5.75392 527.5 5.75392C523.7 5.75392 523.7 1.69238 520 1.69238C516.2 1.69238 516.2 5.75392 512.5 5.75392C508.7 5.75392 508.7 1.69238 505 1.69238C501.2 1.69238 501.2 5.75392 497.5 5.75392C493.7 5.75392 493.7 1.69238 490 1.69238C486.2 1.69238 486.2 5.75392 482.5 5.75392C478.7 5.75392 478.7 1.69238 475 1.69238C471.2 1.69238 471.2 5.75392 467.5 5.75392C463.7 5.75392 463.7 1.69238 460 1.69238C456.2 1.69238 456.2 5.75392 452.5 5.75392C448.7 5.75392 448.7 1.69238 445 1.69238C441.2 1.69238 441.2 5.75392 437.5 5.75392C433.7 5.75392 433.7 1.69238 430 1.69238C426.2 1.69238 426.2 5.75392 422.5 5.75392C418.7 5.75392 418.7 1.69238 415 1.69238C411.2 1.69238 411.2 5.75392 407.5 5.75392C403.7 5.75392 403.7 1.69238 400 1.69238C396.2 1.69238 396.2 5.75392 392.5 5.75392C388.7 5.75392 388.7 1.69238 385 1.69238C381.2 1.69238 381.2 5.75392 377.5 5.75392C373.7 5.75392 373.7 1.69238 370 1.69238C366.2 1.69238 366.2 5.75392 362.5 5.75392C358.7 5.75392 358.7 1.69238 355 1.69238C351.2 1.69238 351.2 5.75392 347.5 5.75392C343.7 5.75392 343.7 1.69238 340 1.69238C336.2 1.69238 336.2 5.75392 332.5 5.75392C328.7 5.75392 328.7 1.69238 325 1.69238C321.2 1.69238 321.2 5.75392 317.5 5.75392C313.7 5.75392 313.7 1.69238 310 1.69238C306.2 1.69238 306.2 5.75392 302.5 5.75392C298.7 5.75392 298.7 1.69238 295 1.69238C291.2 1.69238 291.2 5.75392 287.5 5.75392C283.7 5.75392 283.7 1.69238 280 1.69238C276.2 1.69238 276.2 5.75392 272.5 5.75392C268.7 5.75392 268.7 1.69238 265 1.69238C261.2 1.69238 261.2 5.75392 257.5 5.75392C253.7 5.75392 253.7 1.69238 250 1.69238C246.2 1.69238 246.2 5.75392 242.5 5.75392C238.7 5.75392 238.7 1.69238 235 1.69238C231.2 1.69238 231.2 5.75392 227.5 5.75392C223.7 5.75392 223.7 1.69238 220 1.69238C216.2 1.69238 216.2 5.75392 212.5 5.75392C208.7 5.75392 208.7 1.69238 205 1.69238C201.2 1.69238 201.2 5.75392 197.5 5.75392C193.7 5.75392 193.7 1.69238 190 1.69238C186.2 1.69238 186.2 5.75392 182.5 5.75392C178.7 5.75392 178.7 1.69238 175 1.69238C171.2 1.69238 171.2 5.75392 167.5 5.75392C163.7 5.75392 163.7 1.69238 160 1.69238C156.2 1.69238 156.2 5.75392 152.5 5.75392C148.7 5.75392 148.7 1.69238 145 1.69238C141.2 1.69238 141.2 5.75392 137.5 5.75392C133.7 5.75392 133.7 1.69238 130 1.69238C126.2 1.69238 126.2 5.75392 122.5 5.75392C118.7 5.75392 118.7 1.69238 115 1.69238C111.2 1.69238 111.2 5.75392 107.5 5.75392C103.7 5.75392 103.7 1.69238 100 1.69238C96.2 1.69238 96.2 5.75392 92.5 5.75392C88.7 5.75392 88.7 1.69238 85 1.69238C81.2 1.69238 81.2 5.75392 77.5 5.75392C73.7 5.75392 73.7 1.69238 70 1.69238C66.2 1.69238 66.2 5.75392 62.5 5.75392C58.7 5.75392 58.7 1.69238 55 1.69238C51.2 1.69238 51.2 5.75392 47.5 5.75392C43.7 5.75392 43.7 1.69238 40 1.69238C36.2 1.69238 36.2 5.75392 32.5 5.75392C28.7 5.75392 28.7 1.69238 25 1.69238C21.2 1.69238 21.2 5.75392 17.5 5.75392C13.7 5.75392 13.7 1.69238 10 1.69238C6.2 1.69238 6.2 5.75392 2.5 5.75392C-1.3 5.75392 -1.3 1.69238 -5 1.69238C-8.8 1.69238 -8.8 5.75392 -12.5 5.75392C-16.3 5.75392 -16.3 1.69238 -20 1.69238C-23.8 1.69238 -23.8 5.75392 -27.5 5.75392C-31.3 5.75392 -31.3 1.69238 -35 1.69238C-38.8 1.69238 -38.8 5.75392 -42.5 5.75392C-46.3 5.75392 -46.3 1.69238 -50 1.69238C-53.8 1.69238 -53.8 5.75392 -57.5 5.75392" stroke="#DAD7E5" stroke-width="3" stroke-miterlimit="10" stroke-linecap="round"/>
</svg>
