<svg width="96" height="22" viewBox="0 0 96 22" fill="none" xmlns="http://www.w3.org/2000/svg">
<rect width="96" height="22" fill="white"/>
<path d="M58.848 14.0015L51.8096 4.88817H50.0583V17.107H51.8333V7.74452L59.0695 17.107H60.6231V4.88817H58.848V14.0015ZM41.1294 11.7371H47.4321V10.1502H41.123V6.47186H48.2421V4.885H39.3116V17.1038H48.3292V15.517H41.123L41.1294 11.7371ZM33.7192 10.1851C31.2559 9.5948 30.582 9.12351 30.582 7.9889C30.582 6.96379 31.4853 6.2735 32.8316 6.2735C33.9533 6.2735 35.0576 6.6718 36.2014 7.49062L37.1601 6.13544C35.8944 5.1627 34.526 4.70727 32.868 4.70727C30.4554 4.70727 28.7722 6.13544 28.7722 8.18567C28.7722 10.3819 30.196 11.142 32.8063 11.7767C35.1018 12.3083 35.8011 12.8082 35.8011 13.919C35.8011 15.0298 34.8519 15.7248 33.3727 15.7248C31.9378 15.7248 30.7133 15.2488 29.4176 14.1666L28.3434 15.4487C29.7245 16.643 31.4892 17.2966 33.3126 17.2895C35.9213 17.2895 37.6062 15.8819 37.6062 13.7032C37.603 11.8545 36.513 10.8659 33.7128 10.1851H33.7192ZM92.8711 4.88976L89.2023 10.6517L85.5637 4.88976H83.439L88.2658 12.275V17.1102H90.0946V12.2195L94.9198 4.88976H92.8711ZM62.0611 6.54327H66.0526V17.1086H67.883V6.54327H71.8744V4.88817H62.0659L62.0611 6.54327ZM80.3383 12.3385C82.1797 11.8291 83.1859 10.5342 83.1859 8.6887C83.1859 6.34332 81.471 4.88024 78.7119 4.88024H73.3141V17.0991H75.1255V12.7098H78.1978L81.289 17.1086H83.4042L80.0662 12.4147L80.3383 12.3385ZM75.1176 11.1452V6.50677H78.5348C80.3177 6.50677 81.3413 7.34939 81.3413 8.81724C81.3413 10.2311 80.2465 11.1452 78.5537 11.1452H75.1176ZM13.6559 1.57163C13.4649 1.24015 13.1904 0.964903 12.8598 0.773544C12.5292 0.582184 12.1542 0.481445 11.7725 0.481445C11.3908 0.481445 11.0159 0.582184 10.6853 0.773544C10.3547 0.964903 10.0801 1.24015 9.88912 1.57163L6.78835 6.95903L7.57936 7.41446C9.75363 8.67583 11.5826 10.4577 12.903 12.6009C14.2234 14.7441 14.9941 17.182 15.1462 19.6968H12.9693C12.8186 17.5633 12.1485 15.4995 11.0176 13.6863C9.88675 11.873 8.32973 10.3657 6.48302 9.29647L5.69201 8.84263L2.80323 13.8809L3.59424 14.3363C4.5529 14.9012 5.37095 15.6773 5.98653 16.6059C6.60212 17.5346 6.9991 18.5915 7.14747 19.6968H2.17517C2.11156 19.6978 2.04881 19.6819 1.99335 19.6506C1.93789 19.6194 1.8917 19.5739 1.85951 19.5188C1.82733 19.4638 1.8103 19.4012 1.81017 19.3373C1.81003 19.2735 1.8268 19.2108 1.85876 19.1556L3.24462 16.7484C2.7765 16.3525 2.24041 16.0454 1.66259 15.8423L0.290976 18.2448C0.100238 18.5765 -0.000115008 18.9527 9.89121e-08 19.3356C0.000115206 19.7185 0.100694 20.0947 0.291632 20.4263C0.48257 20.7579 0.757142 21.0332 1.08776 21.2246C1.41839 21.4161 1.79341 21.5169 2.17517 21.5169H9.01742V20.6076C9.01787 19.1698 8.67757 17.7525 8.02456 16.4726C7.37156 15.1927 6.42457 14.0868 5.2617 13.2462L6.35013 11.3546C7.84046 12.3894 9.05872 13.7709 9.90068 15.3809C10.7426 16.991 11.1832 18.7816 11.1848 20.5997V21.5105H16.9829V20.6013C16.9803 17.763 16.2725 14.9701 14.9234 12.4751C13.5743 9.98017 11.6266 7.86181 9.25631 6.31159L11.4569 2.48249C11.4884 2.42779 11.5338 2.38238 11.5883 2.35081C11.6429 2.31924 11.7048 2.30262 11.7678 2.30262C11.8308 2.30262 11.8926 2.31924 11.9472 2.35081C12.0018 2.38238 12.0471 2.42779 12.0786 2.48249L21.6752 19.1556C21.7072 19.2108 21.7239 19.2735 21.7238 19.3373C21.7237 19.4012 21.7066 19.4638 21.6745 19.5188C21.6423 19.5739 21.5961 19.6194 21.5406 19.6506C21.4852 19.6819 21.4224 19.6978 21.3588 19.6968H19.1139C19.1424 20.3045 19.1455 20.9123 19.1139 21.5185H21.3667C21.7485 21.5185 22.1235 21.4177 22.4541 21.2262C22.7847 21.0348 23.0593 20.7594 23.2502 20.4279C23.4412 20.0963 23.5418 19.7201 23.5419 19.3372C23.542 18.9543 23.4416 18.5781 23.2509 18.2464L13.6559 1.57163Z" fill="#1D1127"/>
</svg>
